Coordinates
version=1
nRows=27
nColumns=38
inDegrees=no

Units are S.I. units (second, meters, Newtons, ...)
If the header above contains a line with 'inDegrees', this indicates whether rotational values are in degrees (yes) or radians (no).

endheader
time	pelvis_tilt	pelvis_list	pelvis_rotation	pelvis_tx	pelvis_ty	pelvis_tz	hip_flexion_r	hip_adduction_r	hip_rotation_r	knee_angle_r	ankle_angle_r	subtalar_angle_r	mtp_angle_r	hip_flexion_l	hip_adduction_l	hip_rotation_l	knee_angle_l	ankle_angle_l	subtalar_angle_l	mtp_angle_l	lumbar_extension	lumbar_bending	lumbar_rotation	arm_flex_r	arm_add_r	arm_rot_r	elbow_flex_r	pro_sup_r	wrist_flex_r	wrist_dev_r	arm_flex_l	arm_add_l	arm_rot_l	elbow_flex_l	pro_sup_l	wrist_flex_l	wrist_dev_l
1.33	-3.0762	1.49286	-1.67835	0.65631	0.80699	0.920037	-0.31362	0.0635606	-0.172665	0.0918144	0.230139	0	0	0.29106	0.0357644	-0.27141	0	0.0280486	0	0	-0.247462	-0.043636	-0.0891575	-0.0168673	-0.207728	0.104407	0.432695	1.17287	0	0	-0.0619726	-0.34826	0.31789	0.723857	1.28038	0	0
1.34	-3.10981	1.49011	-1.64351	0.65656	0.817375	0.918254	-0.325889	0.0649739	-0.171546	0.0999483	0.236742	0	0	0.291061	0.0415357	-0.269792	0	0.0317071	0	0	-0.251021	-0.0429544	-0.0894957	-0.0203987	-0.219356	0.169183	0.444476	1.05475	0	0	-0.0621785	-0.353982	0.333627	0.731476	1.21802	0	0
1.35	-3.12844	1.48847	-1.62566	0.657046	0.828224	0.916514	-0.332728	0.0637042	-0.178109	0.117421	0.24833	0	0	0.289016	0.047879	-0.269974	0	0.0344586	0	0	-0.253422	-0.0439119	-0.0865506	-0.0209122	-0.217131	0.154369	0.439181	1.06986	0	0	-0.0627571	-0.354621	0.328448	0.732981	1.23183	0	0
1.36	3.13916	1.48615	-1.61347	0.657789	0.839453	0.914977	-0.338757	0.0608933	-0.184605	0.137935	0.258607	0	0	0.283042	0.0536343	-0.271638	0	0.0337262	0	0	-0.255745	-0.0458174	-0.0803891	-0.0220152	-0.215085	0.140275	0.433468	1.08338	0	0	-0.0635542	-0.355632	0.32467	0.73449	1.24424	0	0
1.37	3.1273	1.48369	-1.60727	0.658738	0.851079	0.913605	-0.343326	0.0565966	-0.19133	0.161437	0.267101	0	0	0.273799	0.0589029	-0.271475	0	0.0301383	0	0	-0.25756	-0.0485919	-0.0715585	-0.0237989	-0.213438	0.127834	0.427558	1.09515	0	0	-0.064916	-0.356891	0.321676	0.736085	1.25514	0	0
1.38	3.12275	1.48121	-1.60977	0.659989	0.862773	0.912444	-0.346304	0.0505609	-0.19671	0.188375	0.273802	0	0	0.261821	0.0642338	-0.264949	0	0.0264388	0	0	-0.259024	-0.0526071	-0.0612006	-0.0260945	-0.211717	0.117032	0.421337	1.1051	0	0	-0.0669817	-0.358585	0.318586	0.737889	1.26457	0	0
1.39	3.11589	1.47937	-1.6121	0.660969	0.87573	0.911303	-0.349454	0.0378073	-0.213644	0.217856	0.28682	0	0	0.243053	0.0686059	-0.251526	0	0.0283943	0	0	-0.257286	-0.0566196	-0.0500207	-0.0329033	-0.221172	0.17471	0.4281	0.995996	0	0	-0.0716929	-0.365148	0.334297	0.745676	1.20921	0	0
1.4	3.12747	1.47419	-1.62873	0.661955	0.88808	0.910525	-0.35654	0.0301233	-0.215623	0.243549	0.28786	0	0	0.237346	0.0727756	-0.231556	0.0131361	0.0372105	0	0	-0.260305	-0.06257	-0.0408398	-0.0370313	-0.217664	0.156149	0.421426	1.01931	0	0	-0.0754078	-0.366152	0.326312	0.746043	1.22851	0	0
1.41	-3.1343	1.47064	-1.65444	0.662712	0.900644	0.909734	-0.358904	0.0200868	-0.220456	0.274882	0.28817	0	0	0.233914	0.078516	-0.212538	0.0352158	0.042993	0	0	-0.260835	-0.0692752	-0.0328468	-0.041788	-0.21437	0.139217	0.415245	1.03926	0	0	-0.0801836	-0.367436	0.319566	0.746268	1.24351	0	0
1.42	-3.10743	1.46909	-1.68468	0.663156	0.913415	0.908902	-0.35699	0.00780877	-0.220761	0.311068	0.28665	0	0	0.232276	0.0848507	-0.19776	0.052103	0.0313476	0	0	-0.258609	-0.0759551	-0.0260992	-0.0474078	-0.211464	0.123325	0.410208	1.05646	0	0	-0.0860772	-0.368081	0.311914	0.745977	1.25486	0	0
1.43	-3.12283	1.46495	-1.67099	0.66251	0.92603	0.909026	-0.359771	0.000114682	-0.22075	0.339948	0.27157	0	0	0.227079	0.0871271	-0.190752	0.0657628	-0.00095986	0	0	-0.260734	-0.0760092	-0.0207336	-0.0518625	-0.21147	0.108633	0.406913	1.07146	0	0	-0.0897343	-0.364099	0.302723	0.740754	1.26376	0	0
1.44	-3.06571	1.46718	-1.72821	0.663396	0.939155	0.907807	-0.341723	-0.0169782	-0.21641	0.399495	0.265754	0	0	0.232918	0.091162	-0.19861	0.0880717	-0.028969	0	0	-0.252774	-0.0868549	-0.0189524	-0.0588063	-0.205251	0.0944575	0.403542	1.08464	0	0	-0.100111	-0.368942	0.292754	0.744224	1.27088	0	0
1.45	-3.03723	1.46505	-1.75406	0.66332	0.952108	0.907843	-0.327887	-0.0308543	-0.220657	0.45524	0.24588	0	0	0.238463	0.0917635	-0.212275	0.125011	-0.0351629	0	0	-0.251168	-0.0931427	-0.0198256	-0.064044	-0.200437	0.0797637	0.400889	1.09637	0	0	-0.108172	-0.371105	0.283819	0.744316	1.27549	0	0
1.46	-2.99294	1.46191	-1.79434	0.663164	0.965017	0.908257	-0.308606	-0.0479134	-0.224272	0.519432	0.215169	0	0	0.248602	0.0927928	-0.229061	0.179493	-0.0146894	0	0	-0.250525	-0.101426	-0.022757	-0.0685781	-0.194481	0.0634433	0.398244	1.10995	0	0	-0.11634	-0.373854	0.274286	0.744486	1.27847	0	0
1.47	-2.93205	1.45813	-1.85093	0.662999	0.97788	0.90892	-0.283173	-0.0688759	-0.22577	0.590608	0.169798	0	0	0.258046	0.0961691	-0.242896	0.236058	0.0149364	0	0	-0.249901	-0.111989	-0.02679	-0.0725482	-0.188405	0.0502669	0.395973	1.12191	0	0	-0.124948	-0.377419	0.265138	0.745296	1.27887	0	0
1.48	-2.86441	1.45634	-1.91356	0.662843	0.990652	0.909487	-0.250387	-0.0917945	-0.226091	0.665299	0.10413	0	0	0.267358	0.0995804	-0.258612	0.287123	0.0429364	0	0	-0.246501	-0.122803	-0.0316725	-0.0762551	-0.182201	0.0382016	0.393749	1.13544	0	0	-0.134339	-0.381936	0.257031	0.747608	1.27667	0	0
1.49	-2.79125	1.45501	-1.9807	0.662495	1.00335	0.910072	-0.214388	-0.115626	-0.222992	0.738818	0.0282305	0	0	0.268053	0.106536	-0.265171	0.314787	0.0572651	0	0	-0.241752	-0.133455	-0.0373812	-0.0801726	-0.177164	0.0316664	0.392143	1.14457	0	0	-0.143323	-0.388629	0.25747	0.751703	1.25453	0	0
1.5	-2.716	1.45399	-2.04882	0.661803	1.01598	0.910609	-0.176301	-0.13903	-0.217441	0.808275	-0.0532131	0	0	0.261128	0.117823	-0.260085	0.322056	0.0606163	0	0	-0.23586	-0.143004	-0.0441072	-0.0845484	-0.1743	0.0334474	0.391569	1.14617	0	0	-0.151909	-0.397052	0.266608	0.757691	1.21227	0	0
1.51	-2.65903	1.45478	-2.09847	0.660905	1.02843	0.910953	-0.13593	-0.157503	-0.207555	0.872317	-0.134354	0	0	0.252922	0.127833	-0.251505	0.324046	0.0616936	0	0	-0.228863	-0.148319	-0.0505115	-0.0892828	-0.173044	0.0359014	0.392251	1.14321	0	0	-0.159392	-0.40196	0.267842	0.759466	1.20488	0	0
1.52	-2.62521	1.45628	-2.1251	0.659968	1.04074	0.911286	-0.0944562	-0.171226	-0.196839	0.929704	-0.224982	0	0	0.243584	0.135408	-0.242026	0.32536	0.0637695	0	0	-0.222281	-0.149918	-0.0565004	-0.0937438	-0.172702	0.0365918	0.393026	1.14153	0	0	-0.165994	-0.405928	0.268947	0.760326	1.20038	0	0
1.53	-2.61315	1.45657	-2.13068	0.65913	1.05293	0.91183	-0.0558596	-0.1824	-0.186124	0.982625	-0.311982	0	0	0.231507	0.141459	-0.231265	0.326068	0.0654962	0	0	-0.21811	-0.149595	-0.0621901	-0.0978789	-0.172888	0.0353081	0.394665	1.1414	0	0	-0.171891	-0.409311	0.269	0.760699	1.19875	0	0
1.54	-2.62109	1.45442	-2.11776	0.658461	1.06489	0.912795	-0.0214802	-0.191939	-0.174712	1.03105	-0.386532	0	0	0.215535	0.146694	-0.219385	0.325497	0.0655282	0	0	-0.217909	-0.148602	-0.0671431	-0.101612	-0.173518	0.0321348	0.398289	1.14172	0	0	-0.176575	-0.41211	0.267984	0.760331	1.1995	0	0
1.55	-2.64042	1.45023	-2.09569	0.658033	1.07648	0.914151	0.00931207	-0.1993	-0.160851	1.07381	-0.43962	0	0	0.196959	0.150806	-0.209445	0.325441	0.0701156	0	0	-0.220993	-0.147733	-0.0706776	-0.10459	-0.174479	0.0285711	0.403311	1.14128	0	0	-0.17973	-0.414349	0.266483	0.758848	1.20129	0	0
1.56	-2.67286	1.4433	-2.06247	0.657933	1.08787	0.916015	0.0338885	-0.203301	-0.144955	1.11056	-0.455062	0	0	0.173389	0.153432	-0.201893	0.323866	0.0804844	0	0	-0.227836	-0.147192	-0.0732326	-0.107119	-0.175907	0.0250391	0.41091	1.14032	0	0	-0.182078	-0.416279	0.263642	0.756783	1.20625	0	0
1.57	-2.70259	1.43623	-2.03337	0.658328	1.09909	0.917975	0.0532442	-0.19828	-0.120266	1.14151	-0.417024	0	0	0.148545	0.154402	-0.197497	0.320404	0.091397	0	0	-0.234709	-0.147703	-0.0753451	-0.10901	-0.177285	0.0238099	0.41944	1.13776	0	0	-0.184899	-0.41919	0.260496	0.755538	1.21022	0	0
1.58	-2.74092	1.42971	-1.99576	0.65854	1.11005	0.920221	0.0771125	-0.196482	-0.101593	1.17765	-0.359539	0	0	0.122514	0.15348	-0.194296	0.314259	0.100775	0	0	-0.242004	-0.146013	-0.0776777	-0.109262	-0.180047	0.0254492	0.42705	1.13296	0	0	-0.186225	-0.420634	0.258556	0.751908	1.21046	0	0
1.59	-2.78073	1.42367	-1.95658	0.65863	1.12082	0.922636	0.09956	-0.19307	-0.0846351	1.20688	-0.302513	0	0	0.0946108	0.152182	-0.190176	0.30262	0.106663	0	0	-0.24929	-0.143116	-0.0802022	-0.10651	-0.180092	0.00608849	0.428942	1.16914	0	0	-0.186175	-0.41741	0.243961	0.742245	1.25317	0	0
